<?xml version="1.0" encoding="UTF-8" standalone="no"?>
<svg
   version="1"
   viewBox="0 0 24 24"
   enable-background="new 0 0 24 24"
   id="svg11131"
   sodipodi:docname="copyClick.svg"
   inkscape:version="1.2.2 (b0a8486541, 2022-12-01)"
   xmlns:inkscape="http://www.inkscape.org/namespaces/inkscape"
   xmlns:sodipodi="http://sodipodi.sourceforge.net/DTD/sodipodi-0.dtd"
   xmlns="http://www.w3.org/2000/svg"
   xmlns:svg="http://www.w3.org/2000/svg">
  <defs
     id="defs11135" />
  <sodipodi:namedview
     id="namedview11133"
     pagecolor="#ffffff"
     bordercolor="#000000"
     borderopacity="0.25"
     inkscape:showpageshadow="2"
     inkscape:pageopacity="0.0"
     inkscape:pagecheckerboard="0"
     inkscape:deskcolor="#d1d1d1"
     showgrid="false"
     inkscape:zoom="35.166667"
     inkscape:cx="7.9336492"
     inkscape:cy="12.042654"
     inkscape:window-width="1920"
     inkscape:window-height="1019"
     inkscape:window-x="0"
     inkscape:window-y="30"
     inkscape:window-maximized="1"
     inkscape:current-layer="svg11131" />
  <path
     d="M 5 2 C 3.9 2 3 2.9 3 4 L 3 17 L 5 17 L 5 4 L 15 4 L 15 2 L 5 2 z M 9 6 C 7.9 6 7 6.9 7 8 L 7 20 C 7 21.1 7.9 22 9 22 L 18 22 C 19.1 22 20 21.1 20 20 L 20 8 C 20 6.9 19.1 6 18 6 L 9 6 z M 9 8 L 18 8 L 18 20 L 9 20 L 9 8 z"
     id="path11129"
     inkscape:label="path11129"
     style="fill:#373737;fill-opacity:1" />
</svg>
